<svg xmlns="http://www.w3.org/2000/svg" viewBox="0 0 512 512">
  <path d="M122 332c0-45 36-82 82-82 10 0 20 2 30 6 13-38 48-64 89-64 51 0 93 38 99 87 32 4 56 33 56 67 0 38-31 69-69 69H204c-45 0-82-37-82-83z" fill="none" stroke="#1f1f1f" stroke-width="28" stroke-linecap="round" stroke-linejoin="round"/>
  <path d="M356 250c-18-18-45-28-74-28-52 0-88 25-88 59 0 31 29 48 76 56 55 10 78 23 78 52 0 32-35 53-88 53-32 0-60-10-80-29" fill="none" stroke="#1f1f1f" stroke-width="28" stroke-linecap="round" stroke-linejoin="round"/>
</svg>
