<svg xmlns="http://www.w3.org/2000/svg" viewBox="0 0 512 512">
  <defs>
    <linearGradient id="g12" x1="96" y1="424" x2="416" y2="88" gradientUnits="userSpaceOnUse">
      <stop offset="0" stop-color="#0f766e"/>
      <stop offset="1" stop-color="#2563eb"/>
    </linearGradient>
  </defs>
  <path d="M124 268c0-54 44-98 98-98 18 0 34 5 49 13 20-35 57-59 100-59 64 0 116 52 116 116s-52 116-116 116H222c-54 0-98-44-98-98z" fill="url(#g12)"/>
  <path d="M198 294c9 35 32 60 58 60 21 0 40-16 51-42" fill="none" stroke="#ffffff" stroke-width="24" stroke-linecap="round"/>
  <path d="M316 302l-11 28-28-11" fill="none" stroke="#ffffff" stroke-width="20" stroke-linecap="round" stroke-linejoin="round"/>
  <path d="M314 226c-9-35-32-60-58-60-21 0-40 16-51 42" fill="none" stroke="#ffffff" stroke-width="24" stroke-linecap="round"/>
  <path d="M196 218l11-28 28 11" fill="none" stroke="#ffffff" stroke-width="20" stroke-linecap="round" stroke-linejoin="round"/>
</svg>
