<?xml version="1.0" encoding="UTF-8" standalone="no"?>
<svg
   viewBox="0 0 512 512"
   version="1.1"
   id="svg15"
   sodipodi:docname="icon-26.svg"
   inkscape:version="1.2.2 (b0a8486541, 2022-12-01)"
   xmlns:inkscape="http://www.inkscape.org/namespaces/inkscape"
   xmlns:sodipodi="http://sodipodi.sourceforge.net/DTD/sodipodi-0.dtd"
   xmlns="http://www.w3.org/2000/svg"
   xmlns:svg="http://www.w3.org/2000/svg">
  <sodipodi:namedview
     id="namedview17"
     pagecolor="#ffffff"
     bordercolor="#000000"
     borderopacity="0.25"
     inkscape:showpageshadow="2"
     inkscape:pageopacity="0.0"
     inkscape:pagecheckerboard="0"
     inkscape:deskcolor="#d1d1d1"
     showgrid="false"
     showguides="true"
     inkscape:zoom="1.28"
     inkscape:cx="249.21875"
     inkscape:cy="406.25"
     inkscape:window-width="3440"
     inkscape:window-height="1370"
     inkscape:window-x="0"
     inkscape:window-y="1080"
     inkscape:window-maximized="1"
     inkscape:current-layer="svg15">
    <sodipodi:guide
       position="432.3669,558.45264"
       orientation="0,-1"
       id="guide179"
       inkscape:locked="false" />
  </sodipodi:namedview>
  <defs
     id="defs7">
    <linearGradient
       id="g26"
       x1="86"
       y1="432"
       x2="426"
       y2="84"
       gradientUnits="userSpaceOnUse"
       gradientTransform="matrix(1,0,0,1.1769497,-2,-87.669327)">
      <stop
         offset="0"
         stop-color="#0891b2"
         id="stop2" />
      <stop
         offset="1"
         stop-color="#1d4ed8"
         id="stop4" />
    </linearGradient>
    <linearGradient
       id="g12"
       x1="96"
       y1="424"
       x2="416"
       y2="88"
       gradientUnits="userSpaceOnUse"
       gradientTransform="translate(-1196.7495,-129.96871)">
      <stop
         offset="0"
         stop-color="#0f766e"
         id="stop1290"
         style="stop-color:#ffffff;stop-opacity:1;" />
      <stop
         offset="1"
         stop-color="#2563eb"
         id="stop1292"
         style="stop-color:#ffffff;stop-opacity:1;" />
    </linearGradient>
  </defs>
  <path
     d="m 202.04649,112.65991 c 0,-21.061206 15.99999,-37.910171 35.99999,-37.910171 h 90 l 34,40.016291 H 202.04649 Z"
     fill="#22c1c3"
     id="path11"
     style="stroke-width:1.02618" />
  <path
     d="m 104,74.749738 h 114.00001 l 30,40.016292 H 408 c 25,0 46,24.71595 46,54.13969 v 214.20485 c 0,29.42374 -21,54.13969 -46,54.13969 H 104 c -25,0 -46,-24.71595 -46,-54.13969 V 128.88943 C 58,99.465683 79,74.749738 104,74.749738 Z"
     fill="url(#g26)"
     id="path9"
     style="fill:url(#g26);stroke-width:1.08487" />
  <path
     d="m 119.43701,302.99629 c 0,-35.9842 29.44161,-65.42582 65.42581,-65.42582 7.3604,0 14.72081,1.63565 21.26339,3.27129 8.17823,-31.07726 36.80202,-53.9763 70.33276,-53.9763 39.25549,0 71.9684,30.25944 75.23969,68.69711 26.17032,3.27129 45.79807,26.17033 45.79807,53.9763 0,30.25944 -24.53468,55.61195 -55.61195,55.61195 H 175.04895 c -31.07727,0 -55.61194,-24.53468 -55.61194,-55.61195 z"
     fill="none"
     stroke="#1f1f1f"
     stroke-width="24.5347"
     stroke-linecap="round"
     stroke-linejoin="round"
     id="path2079"
     style="stroke:#fefefe;stroke-opacity:1" />
</svg>
