<?xml version="1.0" encoding="UTF-8" standalone="no"?>
<svg
   viewBox="0 0 512 512"
   version="1.1"
   id="svg1307"
   sodipodi:docname="icon-12.svg"
   xmlns:inkscape="http://www.inkscape.org/namespaces/inkscape"
   xmlns:sodipodi="http://sodipodi.sourceforge.net/DTD/sodipodi-0.dtd"
   xmlns="http://www.w3.org/2000/svg"
   xmlns:svg="http://www.w3.org/2000/svg">
  <sodipodi:namedview
     id="namedview1309"
     pagecolor="#ffffff"
     bordercolor="#000000"
     borderopacity="0.25"
     inkscape:showpageshadow="2"
     inkscape:pageopacity="0.0"
     inkscape:pagecheckerboard="0"
     inkscape:deskcolor="#d1d1d1"
     showgrid="false" />
  <defs
     id="defs1295">
    <linearGradient
       id="g12"
       x1="96"
       y1="424"
       x2="416"
       y2="88"
       gradientUnits="userSpaceOnUse"
       gradientTransform="translate(-96.496884,-135.10786)">
      <stop
         offset="0"
         stop-color="#0f766e"
         id="stop1290" />
      <stop
         offset="1"
         stop-color="#2563eb"
         id="stop1292" />
    </linearGradient>
  </defs>
  <path
     d="m 27.503116,132.89214 c 0,-54.000004 44,-98.000004 98.000004,-98.000004 18,0 34,5 49,13 20,-35 57,-59 100,-59 64,0 116,52 116,116.000004 0,64 -52,116 -116,116 h -149 c -54.000004,0 -98.000004,-44 -98.000004,-98 z"
     fill="url(#g12)"
     id="path1297"
     style="fill:url(#g12)" />
  <path
     d="M198 294c9 35 32 60 58 60 21 0 40-16 51-42"
     fill="none"
     stroke="#ffffff"
     stroke-width="24"
     stroke-linecap="round"
     id="path1299" />
  <path
     d="m 872.02542,271.28328 -11,28 -28,-11"
     fill="none"
     stroke="#ffffff"
     stroke-width="20"
     stroke-linecap="round"
     stroke-linejoin="round"
     id="path1301" />
  <path
     d="m 870.02542,196 c -9,-35 -32,-60 -58,-60 -21,0 -40,16 -51,42"
     fill="none"
     stroke="#ffffff"
     stroke-width="24"
     stroke-linecap="round"
     id="path1303" />
  <path
     d="m 761.48642,161.9997 11,-28 28,11"
     fill="none"
     stroke="#ffffff"
     stroke-width="20"
     stroke-linecap="round"
     stroke-linejoin="round"
     id="path1305" />
</svg>
