<svg xmlns="http://www.w3.org/2000/svg" viewBox="0 0 512 512">
  <defs>
    <linearGradient id="bg43" x1="72" y1="72" x2="440" y2="440" gradientUnits="userSpaceOnUse">
      <stop offset="0" stop-color="#1d4ed8"/>
      <stop offset="0.56" stop-color="#0ea5e9"/>
      <stop offset="1" stop-color="#14b8a6"/>
    </linearGradient>
  </defs>

  <rect x="42" y="42" width="428" height="428" rx="86" fill="url(#bg43)"/>

  <g fill="none" stroke="#ffffff" stroke-width="30" stroke-linecap="round" stroke-linejoin="round">
    <path d="M208 226C186 206 160 196 134 196C90 196 56 230 56 274C56 318 90 352 134 352C165 352 192 338 210 314C223 296 230 275 236 252C236 319 220 374 198 388"/>
    <path d="M208 226C208 170 252 130 301 130C350 130 386 172 386 226"/>
    <path d="M386 226C405 208 428 198 452 198C492 198 522 229 522 269C522 309 492 340 452 340C418 340 389 323 372 296C359 275 352 251 347 232C347 322 332 381 288 420"/>
    <path d="M386 226C350 208 307 208 279 223C248 239 250 272 291 287C345 307 370 327 370 358C370 393 337 415 291 415C252 415 219 404 198 388"/>
  </g>

  <path d="M386 226l-34-12 14 32z" fill="#ffffff"/>
  <path d="M198 388l33 14-13-31z" fill="#ffffff"/>
</svg>
