<svg xmlns="http://www.w3.org/2000/svg" viewBox="0 0 512 512">
  <defs>
    <linearGradient id="bg42" x1="72" y1="72" x2="440" y2="440" gradientUnits="userSpaceOnUse">
      <stop offset="0" stop-color="#1d4ed8"/>
      <stop offset="0.55" stop-color="#0ea5e9"/>
      <stop offset="1" stop-color="#14b8a6"/>
    </linearGradient>
  </defs>

  <rect x="42" y="42" width="428" height="428" rx="86" fill="url(#bg42)"/>

  <path d="M166 354c-47 0-84-35-84-79s37-79 84-79c18 0 35 5 49 15" fill="none" stroke="#ffffff" stroke-width="30" stroke-linecap="round" stroke-linejoin="round"/>
  <path d="M300 211c12-9 27-15 43-15 47 0 84 35 84 79s-37 79-84 79h-60" fill="none" stroke="#ffffff" stroke-width="30" stroke-linecap="round" stroke-linejoin="round"/>

  <path d="M311 148c-19-18-47-28-78-28-60 0-101 30-101 71 0 37 31 57 83 69 66 14 96 31 96 68 0 42-44 68-104 68" fill="none" stroke="#ffffff" stroke-width="30" stroke-linecap="round" stroke-linejoin="round"/>

  <path d="M292 215l36 18-31 22" fill="#ffffff"/>
  <path d="M228 372l-35-17 30-22" fill="#ffffff"/>
</svg>
