<svg xmlns="http://www.w3.org/2000/svg" viewBox="0 0 512 512">
  <defs>
    <linearGradient id="g5" x1="72" y1="424" x2="440" y2="88" gradientUnits="userSpaceOnUse">
      <stop offset="0" stop-color="#0f766e"/>
      <stop offset="1" stop-color="#2563eb"/>
    </linearGradient>
  </defs>
  <path d="M256 74c79 0 150 40 191 106-12-3-24-4-37-4-46 0-88 20-116 54-20-13-44-20-69-20-70 0-127 57-127 127 0 8 1 15 2 22C81 331 72 300 72 266 72 160 150 74 256 74z" fill="url(#g5)"/>
  <path d="M100 359c0-57 46-103 103-103 19 0 37 5 52 14 20-29 53-48 90-48 58 0 105 47 105 105s-47 105-105 105H202c-56 0-102-46-102-103z" fill="#22d3ee"/>
  <path d="M256 298v106" stroke="#0f172a" stroke-width="28" stroke-linecap="round"/>
  <path d="M208 356l48 48 48-48" fill="none" stroke="#0f172a" stroke-width="24" stroke-linecap="round" stroke-linejoin="round"/>
</svg>
