<?xml version="1.0" encoding="UTF-8" standalone="no"?>
<svg
   viewBox="0 0 512 512"
   version="1.1"
   id="svg15"
   sodipodi:docname="logo.svg"
   inkscape:version="1.2.2 (b0a8486541, 2022-12-01)"
   xml:space="preserve"
   inkscape:export-filename="icon-26.svg.2026_05_06_23_50_59.0.png"
   inkscape:export-xdpi="96"
   inkscape:export-ydpi="96"
   xmlns:inkscape="http://www.inkscape.org/namespaces/inkscape"
   xmlns:sodipodi="http://sodipodi.sourceforge.net/DTD/sodipodi-0.dtd"
   xmlns="http://www.w3.org/2000/svg"
   xmlns:svg="http://www.w3.org/2000/svg"><path
     d="m 190.34988,81.585106 c 0,-25.62708 19.46863,-46.128745 43.80445,-46.128745 h 109.51116 l 41.37089,48.691454 h -194.6865 z"
     fill="#22c1c3"
     id="path11"
     style="stroke-width:1.24865" /><path
     d="M 71.047808,35.45636 H 209.76197 l 36.50372,48.691455 H 440.9522 c 30.41978,0 55.97237,30.074135 55.97237,65.876665 v 260.64248 c 0,35.80254 -25.55259,65.87668 -55.97237,65.87668 H 71.047808 c -30.419769,0 -55.972374,-30.07414 -55.972374,-65.87668 V 101.33304 c 0,-35.802547 25.552605,-65.87668 55.972374,-65.87668 z"
     fill="url(#g26)"
     id="path9"
     style="fill:url(#g26);stroke-width:1.32007" /><path
     style="fill:none;fill-opacity:1;stroke:#ffffff;stroke-width:34.0701;stroke-linecap:round;stroke-linejoin:round;stroke-dasharray:none;stroke-opacity:1;paint-order:normal"
     d="m 343.90816,233.23779 c 130.67873,-13.18116 130.708,182.95316 -70.20474,182.95316"
     id="path5814-0"
     sodipodi:nodetypes="cc"
     inkscape:label="Cloud-Lower-Right" /><path
     style="fill:none;fill-opacity:1;stroke:#ffffff;stroke-width:34.0701;stroke-linecap:round;stroke-dasharray:none;stroke-opacity:1"
     d="m 273.70342,416.19095 c -282.5297421,0 -205.059028,-201.41341 -105.59189,-186.09259"
     id="path8048-6"
     sodipodi:nodetypes="cc"
     inkscape:label="Cloud-Lower-Left" /><path
     style="fill:none;fill-opacity:1;stroke:#ffffff;stroke-width:34.0701;stroke-linecap:round;stroke-dasharray:none;stroke-opacity:1;marker-start:url(#RoundedArrow);marker-end:url(#RoundedArrow)"
     d="m 202.05605,411.00298 c 194.46272,45.60375 174.4286,-151.1787 61.7866,-130.69215 -35.05205,6.37502 -96.03027,-16.40298 -97.73422,-62.21153 -4.32821,-116.3587 198.89643,-130.644626 177.79973,15.13849"
     id="path8054-1"
     sodipodi:nodetypes="cssc"
     inkscape:label="Cloud-S" /><sodipodi:namedview
     id="namedview17"
     pagecolor="#ffffff"
     bordercolor="#000000"
     borderopacity="0.25"
     inkscape:showpageshadow="2"
     inkscape:pageopacity="0.0"
     inkscape:pagecheckerboard="0"
     inkscape:deskcolor="#d1d1d1"
     showgrid="false"
     showguides="true"
     inkscape:zoom="0.90509668"
     inkscape:cx="85.073785"
     inkscape:cy="350.79125"
     inkscape:window-width="1478"
     inkscape:window-height="1047"
     inkscape:window-x="2033"
     inkscape:window-y="1253"
     inkscape:window-maximized="0"
     inkscape:current-layer="svg15" /><defs
     id="defs7"><marker
       style="overflow:visible"
       id="RoundedArrow"
       refX="0"
       refY="0"
       orient="auto-start-reverse"
       inkscape:stockid="RoundedArrow"
       markerWidth="1.6"
       markerHeight="2.2"
       viewBox="0 0 6.1347524 5.9304951"
       inkscape:isstock="true"
       inkscape:collect="always"
       preserveAspectRatio="none"
       markerUnits="strokeWidth"><path
         transform="scale(0.7)"
         d="m -0.21114562,-4.1055728 6.42229122,3.21114561 a 1,1 90 0 1 0,1.78885438 L -0.21114562,4.1055728 A 1.236068,1.236068 31.717474 0 1 -2,3 v -6 a 1.236068,1.236068 148.28253 0 1 1.78885438,-1.1055728 z"
         style="fill:context-stroke;fill-rule:evenodd;stroke:none"
         id="path1367" /></marker><linearGradient
       id="g26"
       x1="86"
       y1="432"
       x2="426"
       y2="84"
       gradientUnits="userSpaceOnUse"
       gradientTransform="matrix(1.2167908,0,0,1.4321015,-57.932012,-162.17366)"><stop
         offset="0"
         stop-color="#0891b2"
         id="stop2" /><stop
         offset="1"
         stop-color="#1d4ed8"
         id="stop4" /></linearGradient><linearGradient
       id="g12"
       x1="96"
       y1="424"
       x2="416"
       y2="88"
       gradientUnits="userSpaceOnUse"
       gradientTransform="translate(-1196.7495,-129.96871)"><stop
         offset="0"
         stop-color="#0f766e"
         id="stop1290"
         style="stop-color:#ffffff;stop-opacity:1;" /><stop
         offset="1"
         stop-color="#2563eb"
         id="stop1292"
         style="stop-color:#ffffff;stop-opacity:1;" /></linearGradient></defs></svg>
